<svg width="100" height="100" viewBox="0 0 100 100" fill="none" xmlns="http://www.w3.org/2000/svg">
<rect width="100" height="100" fill="white"/>
<circle cx="50.5" cy="49.5" r="36.5" fill="#FF9294"/>
<path d="M43.1547 15.1476C42.3211 15.1476 41.5837 14.8557 40.9424 14.2718C40.3012 13.623 39.9805 12.8445 39.9805 11.9362C39.9805 11.0928 40.2691 10.3792 40.8462 9.7953C41.4875 9.14653 42.257 8.82214 43.1547 8.82214H91.922C92.8197 8.82214 93.5572 9.11409 94.1343 9.69798C94.7114 10.2819 95 11.028 95 11.9362C95 12.8445 94.6794 13.623 94.0381 14.2718C93.461 14.8557 92.7556 15.1476 91.922 15.1476H43.1547ZM51.2345 43.953H49.3108C47.8359 43.953 46.5534 43.434 45.4633 42.396C44.3731 41.2931 43.8281 39.9955 43.8281 38.5034V26.6309C43.8281 25.1387 44.3731 23.8412 45.4633 22.7383C46.5534 21.6353 47.8359 21.0839 49.3108 21.0839H85.3812C86.8561 21.0839 88.1386 21.6353 89.2287 22.7383C90.3189 23.8412 90.8639 25.1387 90.8639 26.6309V38.5034C90.8639 39.9955 90.3189 41.2931 89.2287 42.396C88.1386 43.434 86.8561 43.953 85.3812 43.953H51.2345ZM51.2345 27.7987V37.6275C51.2345 38.1465 51.5231 38.406 52.1002 38.406H82.4956C83.0086 38.406 83.2651 38.1465 83.2651 37.6275V27.7987C83.2651 27.2148 83.0086 26.9228 82.4956 26.9228H52.1002C51.5231 26.9228 51.2345 27.2148 51.2345 27.7987ZM10.8356 66.3356C10.002 66.9195 9.10424 67.0817 8.14237 66.8222C7.24461 66.4978 6.63542 65.849 6.3148 64.8758C5.93005 63.7729 5.89798 62.67 6.21861 61.5671C6.60336 60.4642 7.24461 59.5559 8.14237 58.8423C18.7872 50.8624 26.1936 40.8714 30.3618 28.8691C30.49 28.3501 30.2976 28.0906 29.7846 28.0906H10.8356C9.93787 28.0906 9.13631 27.7662 8.43093 27.1174C7.78968 26.4038 7.46905 25.5928 7.46905 24.6846C7.46905 23.7763 7.78968 22.9978 8.43093 22.349C9.13631 21.6353 9.93787 21.2785 10.8356 21.2785H18.1459C18.723 21.2785 19.0116 20.9866 19.0116 20.4027V9.7953C19.0116 8.75727 19.3643 7.88143 20.0697 7.16779C20.775 6.38926 21.6407 6 22.6667 6C23.6927 6 24.5584 6.38926 25.2638 7.16779C26.0333 7.88143 26.4181 8.75727 26.4181 9.7953V20.4027C26.4181 20.9866 26.6746 21.2785 27.1876 21.2785H34.6902C35.588 21.2785 36.3575 21.6353 36.9987 22.349C37.7041 22.9978 38.0568 23.7763 38.0568 24.6846C38.0568 27.085 37.7362 29.2908 37.0949 31.302C35.107 37.0761 32.7344 42.1689 29.977 46.5805C29.7205 47.0995 29.7526 47.5212 30.0732 47.8456C33.9207 52.1924 37.2552 56.1499 40.0767 59.7181C40.1409 59.783 40.1729 59.8154 40.1729 59.8154C40.1729 59.9452 40.205 60.0101 40.2691 60.0101C40.3332 60.1398 40.3974 60.2047 40.4615 60.2047C40.5897 60.2047 40.6539 60.1398 40.6539 60.0101V55.5336C40.6539 54.0414 41.1989 52.7438 42.2891 51.6409C43.3792 50.538 44.6617 49.9866 46.1366 49.9866H88.5554C90.0303 49.9866 91.3128 50.538 92.4029 51.6409C93.4931 52.7438 94.0381 54.0414 94.0381 55.5336V88.7181C94.0381 89.7562 93.6534 90.632 92.8839 91.3456C92.1785 92.1242 91.3128 92.5134 90.2868 92.5134C89.2608 92.5134 88.3951 92.1566 87.6897 91.443C86.9843 90.7293 86.6317 89.8535 86.6317 88.8154C86.6317 88.4262 86.4713 88.2315 86.1507 88.2315H48.4451C48.0603 88.2315 47.868 88.4262 47.868 88.8154C47.868 89.8535 47.5153 90.7293 46.8099 91.443C46.1045 92.1566 45.2388 92.5134 44.2128 92.5134C43.1868 92.5134 42.3211 92.1566 41.6157 91.443C40.9745 90.7293 40.6539 89.8535 40.6539 88.8154V63.8054C40.6539 63.6756 40.6218 63.6107 40.5577 63.6107C40.4935 63.6107 40.4294 63.6432 40.3653 63.7081C40.237 63.9676 39.9805 64.2919 39.5958 64.6812C38.8904 65.33 38.0889 65.5895 37.1911 65.4597C36.2933 65.33 35.5559 64.9083 34.9788 64.1946C33.5039 62.2483 30.8106 58.972 26.899 54.3658C26.7707 54.236 26.6425 54.2036 26.5142 54.2685C26.4501 54.3333 26.4181 54.4307 26.4181 54.5604V89.2047C26.4181 90.2427 26.0333 91.1186 25.2638 91.8322C24.5584 92.6107 23.6927 93 22.6667 93C21.6407 93 20.775 92.6107 20.0697 91.8322C19.3643 91.1186 19.0116 90.2427 19.0116 89.2047V60.1074C19.0116 59.9776 18.9475 59.8803 18.8192 59.8154C18.691 59.6857 18.5627 59.6857 18.4345 59.8154C16.4466 61.8266 13.9136 64 10.8356 66.3356ZM70.6645 56.9933V65.4597C70.6645 66.0436 70.921 66.3356 71.434 66.3356H85.8622C86.3752 66.3356 86.6317 66.0436 86.6317 65.4597V56.9933C86.6317 56.4094 86.3752 56.1174 85.8622 56.1174H71.434C70.921 56.1174 70.6645 56.4094 70.6645 56.9933ZM70.6645 72.7584V81.6141C70.6645 82.1331 70.921 82.3926 71.434 82.3926H85.8622C86.3752 82.3926 86.6317 82.1331 86.6317 81.6141V72.7584C86.6317 72.1745 86.3752 71.8825 85.8622 71.8825H71.434C70.921 71.8825 70.6645 72.1745 70.6645 72.7584ZM47.868 56.9933V65.4597C47.868 66.0436 48.1565 66.3356 48.7336 66.3356H62.7771C63.2901 66.3356 63.5466 66.0436 63.5466 65.4597V56.9933C63.5466 56.4094 63.2901 56.1174 62.7771 56.1174H48.7336C48.1565 56.1174 47.868 56.4094 47.868 56.9933ZM47.868 72.7584V81.6141C47.868 82.1331 48.1565 82.3926 48.7336 82.3926H62.7771C63.2901 82.3926 63.5466 82.1331 63.5466 81.6141V72.7584C63.5466 72.1745 63.2901 71.8825 62.7771 71.8825H48.7336C48.1565 71.8825 47.868 72.1745 47.868 72.7584Z" fill="black"/>
</svg>
